<svg width="221" height="40" viewBox="0 0 221 40" fill="none" xmlns="http://www.w3.org/2000/svg">
<path fill-rule="evenodd" clip-rule="evenodd" d="M-2.62268e-07 34C-1.17422e-07 37.3137 2.68629 40 6 40L34 40C37.3137 40 40 37.3137 40 34L40 19.5557C37.6181 21.4651 34.5946 22.6072 31.3043 22.6072C23.6204 22.6072 17.3913 16.3781 17.3913 8.69414C17.3913 5.40459 18.5329 2.38168 20.4416 6.73586e-06L6 7.36713e-06C2.68629 7.51197e-06 -1.63103e-06 2.6863 -1.48619e-06 6L-2.62268e-07 34Z" fill="#AF51C5"/>
<path fill-rule="evenodd" clip-rule="evenodd" d="M-2.62268e-07 34C-1.17422e-07 37.3137 2.68629 40 6 40L34 40C37.3137 40 40 37.3137 40 34L40 19.5557C37.6181 21.4651 34.5946 22.6072 31.3043 22.6072C23.6204 22.6072 17.3913 16.3781 17.3913 8.69414C17.3913 5.40459 18.5329 2.38168 20.4416 6.73586e-06L6 7.36713e-06C2.68629 7.51197e-06 -1.63103e-06 2.6863 -1.48619e-06 6L-2.62268e-07 34Z" fill="url(#paint0_linear_1_146)"/>
<circle cx="31.3043" cy="8.69656" r="6.95652" transform="rotate(-90 31.3043 8.69656)" fill="#AF51C5"/>
<path d="M64.194 27.582C64.558 27.582 64.8527 27.6947 65.078 27.92C65.3207 28.1453 65.442 28.44 65.442 28.804C65.442 29.1507 65.3207 29.4367 65.078 29.662C64.8527 29.8873 64.558 30 64.194 30H55.406C55.042 30 54.7387 29.8787 54.496 29.636C54.2707 29.3933 54.158 29.0987 54.158 28.752V13.048C54.158 12.7013 54.2793 12.4067 54.522 12.164C54.7647 11.9213 55.0767 11.8 55.458 11.8C55.8047 11.8 56.0993 11.9213 56.342 12.164C56.602 12.4067 56.732 12.7013 56.732 13.048V27.582H64.194ZM78.2809 16.376C78.6449 16.376 78.9396 16.4973 79.1649 16.74C79.4076 16.9827 79.5289 17.2773 79.5289 17.624V24.54C79.5289 26.3427 79.0263 27.7467 78.0209 28.752C77.0329 29.74 75.6289 30.234 73.8089 30.234C72.0063 30.234 70.6109 29.74 69.6229 28.752C68.6349 27.7467 68.1409 26.3427 68.1409 24.54V17.624C68.1409 17.2773 68.2536 16.9827 68.4789 16.74C68.7216 16.4973 69.0163 16.376 69.3629 16.376C69.7269 16.376 70.0216 16.4973 70.2469 16.74C70.4896 16.9827 70.6109 17.2773 70.6109 17.624V24.54C70.6109 26.8107 71.6769 27.946 73.8089 27.946C74.8663 27.946 75.6723 27.66 76.2269 27.088C76.7816 26.516 77.0589 25.6667 77.0589 24.54V17.624C77.0589 17.2773 77.1716 16.9827 77.3969 16.74C77.6396 16.4973 77.9343 16.376 78.2809 16.376ZM90.165 16.064C93.285 16.064 94.845 17.936 94.845 21.68V28.752C94.845 29.0987 94.7236 29.3933 94.481 29.636C94.2556 29.8787 93.961 30 93.597 30C93.2503 30 92.9556 29.8787 92.713 29.636C92.4876 29.3933 92.375 29.0987 92.375 28.752V21.706C92.375 20.6833 92.141 19.8687 91.673 19.262C91.205 18.6553 90.4423 18.352 89.385 18.352C88.6916 18.352 88.059 18.508 87.487 18.82C86.9323 19.1147 86.4903 19.522 86.161 20.042C85.849 20.5447 85.693 21.0993 85.693 21.706V28.752C85.693 29.0987 85.5716 29.3933 85.329 29.636C85.1036 29.8787 84.809 30 84.445 30C84.081 30 83.7863 29.8873 83.561 29.662C83.3356 29.4193 83.223 29.116 83.223 28.752V17.624C83.223 17.2773 83.3356 16.9827 83.561 16.74C83.8036 16.4973 84.0983 16.376 84.445 16.376C84.809 16.376 85.1036 16.4973 85.329 16.74C85.5716 16.9827 85.693 17.2773 85.693 17.624V18.534C86.1436 17.8407 86.7676 17.26 87.565 16.792C88.3796 16.3067 89.2463 16.064 90.165 16.064ZM104.462 16.064C105.831 16.064 106.966 16.2807 107.868 16.714C108.786 17.1473 109.246 17.702 109.246 18.378C109.246 18.6727 109.15 18.9413 108.96 19.184C108.769 19.4093 108.526 19.522 108.232 19.522C108.006 19.522 107.824 19.4873 107.686 19.418C107.564 19.3487 107.391 19.236 107.166 19.08C107.062 18.976 106.897 18.8547 106.672 18.716C106.464 18.612 106.169 18.5253 105.788 18.456C105.406 18.3867 105.06 18.352 104.748 18.352C103.846 18.352 103.049 18.56 102.356 18.976C101.662 19.392 101.125 19.9727 100.744 20.718C100.362 21.446 100.172 22.2607 100.172 23.162C100.172 24.0807 100.354 24.904 100.718 25.632C101.099 26.36 101.628 26.932 102.304 27.348C102.98 27.764 103.751 27.972 104.618 27.972C105.519 27.972 106.247 27.8333 106.802 27.556C106.923 27.4867 107.088 27.374 107.296 27.218C107.469 27.0793 107.616 26.9753 107.738 26.906C107.876 26.8367 108.041 26.802 108.232 26.802C108.578 26.802 108.847 26.9147 109.038 27.14C109.246 27.348 109.35 27.6253 109.35 27.972C109.35 28.336 109.116 28.7 108.648 29.064C108.197 29.4107 107.582 29.6967 106.802 29.922C106.039 30.1473 105.216 30.26 104.331 30.26C103.014 30.26 101.853 29.9567 100.848 29.35C99.8422 28.726 99.0622 27.8767 98.5075 26.802C97.9702 25.71 97.7015 24.4967 97.7015 23.162C97.7015 21.8273 97.9875 20.6227 98.5595 19.548C99.1315 18.456 99.9288 17.6067 100.952 17C101.974 16.376 103.144 16.064 104.462 16.064ZM118.675 16.142C121.726 16.142 123.251 18.0313 123.251 21.81V28.752C123.251 29.0987 123.13 29.3933 122.887 29.636C122.662 29.8787 122.367 30 122.003 30C121.656 30 121.362 29.8787 121.119 29.636C120.894 29.3933 120.781 29.0987 120.781 28.752V21.81C120.781 19.5567 119.828 18.43 117.921 18.43C116.898 18.43 116.049 18.7593 115.373 19.418C114.697 20.0593 114.359 20.8567 114.359 21.81V28.752C114.359 29.0987 114.238 29.3933 113.995 29.636C113.77 29.8787 113.475 30 113.111 30C112.747 30 112.452 29.8873 112.227 29.662C112.002 29.4193 111.889 29.116 111.889 28.752V12.008C111.889 11.6613 112.002 11.3667 112.227 11.124C112.47 10.8813 112.764 10.76 113.111 10.76C113.475 10.76 113.77 10.8813 113.995 11.124C114.238 11.3667 114.359 11.6613 114.359 12.008V18.586C114.792 17.91 115.399 17.338 116.179 16.87C116.959 16.3847 117.791 16.142 118.675 16.142ZM133.784 16.142C134.962 16.142 136.028 16.4453 136.982 17.052C137.935 17.6413 138.68 18.4733 139.218 19.548C139.772 20.6227 140.05 21.836 140.05 23.188C140.05 24.54 139.772 25.7533 139.218 26.828C138.68 27.8853 137.935 28.7173 136.982 29.324C136.028 29.9307 134.98 30.234 133.836 30.234C132.934 30.234 132.094 30.0347 131.314 29.636C130.534 29.2373 129.901 28.752 129.416 28.18V33.952C129.416 34.2987 129.294 34.5933 129.052 34.836C128.826 35.0787 128.532 35.2 128.168 35.2C127.821 35.2 127.526 35.0787 127.284 34.836C127.058 34.6107 126.946 34.316 126.946 33.952V17.598C126.946 17.234 127.058 16.9307 127.284 16.688C127.509 16.4453 127.804 16.324 128.168 16.324C128.532 16.324 128.826 16.4453 129.052 16.688C129.294 16.9307 129.416 17.234 129.416 17.598V18.352C129.832 17.7453 130.438 17.2253 131.236 16.792C132.033 16.3587 132.882 16.142 133.784 16.142ZM133.498 27.946C134.295 27.946 135.014 27.738 135.656 27.322C136.297 26.906 136.791 26.3427 137.138 25.632C137.502 24.904 137.684 24.0893 137.684 23.188C137.684 22.2867 137.502 21.4807 137.138 20.77C136.791 20.042 136.297 19.47 135.656 19.054C135.014 18.638 134.295 18.43 133.498 18.43C132.683 18.43 131.955 18.638 131.314 19.054C130.672 19.4527 130.17 20.016 129.806 20.744C129.459 21.472 129.286 22.2867 129.286 23.188C129.286 24.0893 129.459 24.904 129.806 25.632C130.17 26.36 130.672 26.932 131.314 27.348C131.955 27.7467 132.683 27.946 133.498 27.946ZM145.256 28.752C145.256 29.0987 145.135 29.3933 144.892 29.636C144.667 29.8787 144.372 30 144.008 30C143.662 30 143.367 29.8787 143.124 29.636C142.899 29.3933 142.786 29.0987 142.786 28.752V17.494C142.786 17.1473 142.899 16.8527 143.124 16.61C143.367 16.3673 143.662 16.246 144.008 16.246C144.372 16.246 144.667 16.3673 144.892 16.61C145.135 16.8527 145.256 17.1473 145.256 17.494V28.752ZM144.008 14.53C143.506 14.53 143.142 14.4433 142.916 14.27C142.708 14.0793 142.604 13.7847 142.604 13.386V12.97C142.604 12.554 142.717 12.2593 142.942 12.086C143.185 11.9127 143.549 11.826 144.034 11.826C144.52 11.826 144.866 11.9213 145.074 12.112C145.3 12.2853 145.412 12.5713 145.412 12.97V13.386C145.412 13.802 145.3 14.0967 145.074 14.27C144.849 14.4433 144.494 14.53 144.008 14.53ZM155.593 16.064C156.044 16.064 156.434 16.1853 156.763 16.428C157.092 16.6533 157.257 16.9393 157.257 17.286C157.257 17.702 157.144 18.0227 156.919 18.248C156.711 18.456 156.451 18.56 156.139 18.56C155.983 18.56 155.749 18.508 155.437 18.404C155.073 18.2827 154.787 18.222 154.579 18.222C154.042 18.222 153.513 18.4127 152.993 18.794C152.49 19.158 152.074 19.6693 151.745 20.328C151.433 20.9693 151.277 21.6887 151.277 22.486V28.752C151.277 29.0987 151.156 29.3933 150.913 29.636C150.688 29.8787 150.393 30 150.029 30C149.665 30 149.37 29.8873 149.145 29.662C148.92 29.4193 148.807 29.116 148.807 28.752V17.624C148.807 17.2773 148.92 16.9827 149.145 16.74C149.388 16.4973 149.682 16.376 150.029 16.376C150.393 16.376 150.688 16.4973 150.913 16.74C151.156 16.9827 151.277 17.2773 151.277 17.624V18.95C151.658 18.1007 152.23 17.416 152.993 16.896C153.756 16.3587 154.622 16.0813 155.593 16.064ZM170.292 16.194C170.656 16.194 170.951 16.3153 171.176 16.558C171.419 16.7833 171.54 17.0867 171.54 17.468V28.752C171.54 29.0987 171.419 29.3933 171.176 29.636C170.951 29.8787 170.656 30 170.292 30C169.928 30 169.634 29.8873 169.408 29.662C169.183 29.4193 169.07 29.116 169.07 28.752V28.076C168.62 28.6827 168.004 29.2027 167.224 29.636C166.444 30.052 165.604 30.26 164.702 30.26C163.524 30.26 162.449 29.9567 161.478 29.35C160.525 28.7433 159.771 27.9027 159.216 26.828C158.679 25.736 158.41 24.514 158.41 23.162C158.41 21.81 158.679 20.5967 159.216 19.522C159.771 18.43 160.525 17.5807 161.478 16.974C162.432 16.3673 163.48 16.064 164.624 16.064C165.543 16.064 166.392 16.2547 167.172 16.636C167.97 17.0173 168.602 17.5027 169.07 18.092V17.468C169.07 17.104 169.183 16.8007 169.408 16.558C169.634 16.3153 169.928 16.194 170.292 16.194ZM164.988 27.972C165.803 27.972 166.522 27.764 167.146 27.348C167.788 26.932 168.282 26.36 168.628 25.632C168.992 24.904 169.174 24.0807 169.174 23.162C169.174 22.2607 168.992 21.446 168.628 20.718C168.282 19.99 167.788 19.418 167.146 19.002C166.522 18.5687 165.803 18.352 164.988 18.352C164.174 18.352 163.446 18.56 162.804 18.976C162.18 19.392 161.686 19.964 161.322 20.692C160.976 21.42 160.802 22.2433 160.802 23.162C160.802 24.0807 160.976 24.904 161.322 25.632C161.686 26.36 162.18 26.932 162.804 27.348C163.446 27.764 164.174 27.972 164.988 27.972ZM178.905 18.794V26.542C178.905 27.4087 179.295 27.842 180.075 27.842C180.197 27.842 180.361 27.816 180.569 27.764C180.777 27.6947 180.942 27.66 181.063 27.66C181.289 27.66 181.479 27.7553 181.635 27.946C181.791 28.1367 181.869 28.3793 181.869 28.674C181.869 29.038 181.661 29.35 181.245 29.61C180.829 29.87 180.361 30 179.841 30C179.269 30 178.741 29.9393 178.255 29.818C177.787 29.6967 177.363 29.3933 176.981 28.908C176.617 28.4053 176.435 27.6513 176.435 26.646V18.794H174.927C174.598 18.794 174.321 18.69 174.095 18.482C173.887 18.2567 173.783 17.9793 173.783 17.65C173.783 17.3207 173.887 17.052 174.095 16.844C174.321 16.636 174.598 16.532 174.927 16.532H176.435V14.348C176.435 14.0013 176.548 13.7067 176.773 13.464C177.016 13.2213 177.319 13.1 177.683 13.1C178.03 13.1 178.316 13.2213 178.541 13.464C178.784 13.7067 178.905 14.0013 178.905 14.348V16.532H181.063C181.393 16.532 181.661 16.6447 181.869 16.87C182.095 17.078 182.207 17.3467 182.207 17.676C182.207 18.0053 182.095 18.274 181.869 18.482C181.661 18.69 181.393 18.794 181.063 18.794H178.905ZM187.43 28.752C187.43 29.0987 187.309 29.3933 187.066 29.636C186.841 29.8787 186.546 30 186.182 30C185.835 30 185.541 29.8787 185.298 29.636C185.073 29.3933 184.96 29.0987 184.96 28.752V17.494C184.96 17.1473 185.073 16.8527 185.298 16.61C185.541 16.3673 185.835 16.246 186.182 16.246C186.546 16.246 186.841 16.3673 187.066 16.61C187.309 16.8527 187.43 17.1473 187.43 17.494V28.752ZM186.182 14.53C185.679 14.53 185.315 14.4433 185.09 14.27C184.882 14.0793 184.778 13.7847 184.778 13.386V12.97C184.778 12.554 184.891 12.2593 185.116 12.086C185.359 11.9127 185.723 11.826 186.208 11.826C186.693 11.826 187.04 11.9213 187.248 12.112C187.473 12.2853 187.586 12.5713 187.586 12.97V13.386C187.586 13.802 187.473 14.0967 187.248 14.27C187.023 14.4433 186.667 14.53 186.182 14.53ZM203.877 23.188C203.877 24.54 203.573 25.7533 202.967 26.828C202.36 27.9027 201.528 28.7433 200.471 29.35C199.431 29.9567 198.278 30.26 197.013 30.26C195.747 30.26 194.586 29.9567 193.529 29.35C192.489 28.7433 191.665 27.9027 191.059 26.828C190.452 25.7533 190.149 24.54 190.149 23.188C190.149 21.836 190.452 20.614 191.059 19.522C191.665 18.43 192.489 17.5807 193.529 16.974C194.586 16.3673 195.747 16.064 197.013 16.064C198.278 16.064 199.431 16.3673 200.471 16.974C201.528 17.5807 202.36 18.43 202.967 19.522C203.573 20.614 203.877 21.836 203.877 23.188ZM201.407 23.188C201.407 22.252 201.207 21.42 200.809 20.692C200.427 19.9467 199.899 19.3747 199.223 18.976C198.564 18.56 197.827 18.352 197.013 18.352C196.198 18.352 195.453 18.56 194.777 18.976C194.118 19.3747 193.589 19.9467 193.191 20.692C192.809 21.42 192.619 22.252 192.619 23.188C192.619 24.1067 192.809 24.93 193.191 25.658C193.589 26.386 194.118 26.958 194.777 27.374C195.453 27.7727 196.198 27.972 197.013 27.972C197.827 27.972 198.564 27.7727 199.223 27.374C199.899 26.958 200.427 26.386 200.809 25.658C201.207 24.93 201.407 24.1067 201.407 23.188ZM213.69 16.064C216.81 16.064 218.37 17.936 218.37 21.68V28.752C218.37 29.0987 218.249 29.3933 218.006 29.636C217.781 29.8787 217.486 30 217.122 30C216.776 30 216.481 29.8787 216.238 29.636C216.013 29.3933 215.9 29.0987 215.9 28.752V21.706C215.9 20.6833 215.666 19.8687 215.198 19.262C214.73 18.6553 213.968 18.352 212.91 18.352C212.217 18.352 211.584 18.508 211.012 18.82C210.458 19.1147 210.016 19.522 209.686 20.042C209.374 20.5447 209.218 21.0993 209.218 21.706V28.752C209.218 29.0987 209.097 29.3933 208.854 29.636C208.629 29.8787 208.334 30 207.97 30C207.606 30 207.312 29.8873 207.086 29.662C206.861 29.4193 206.748 29.116 206.748 28.752V17.624C206.748 17.2773 206.861 16.9827 207.086 16.74C207.329 16.4973 207.624 16.376 207.97 16.376C208.334 16.376 208.629 16.4973 208.854 16.74C209.097 16.9827 209.218 17.2773 209.218 17.624V18.534C209.669 17.8407 210.293 17.26 211.09 16.792C211.905 16.3067 212.772 16.064 213.69 16.064Z" fill="#F9FAFB"/>
<path d="M64.194 27.582C64.558 27.582 64.8527 27.6947 65.078 27.92C65.3207 28.1453 65.442 28.44 65.442 28.804C65.442 29.1507 65.3207 29.4367 65.078 29.662C64.8527 29.8873 64.558 30 64.194 30H55.406C55.042 30 54.7387 29.8787 54.496 29.636C54.2707 29.3933 54.158 29.0987 54.158 28.752V13.048C54.158 12.7013 54.2793 12.4067 54.522 12.164C54.7647 11.9213 55.0767 11.8 55.458 11.8C55.8047 11.8 56.0993 11.9213 56.342 12.164C56.602 12.4067 56.732 12.7013 56.732 13.048V27.582H64.194ZM78.2809 16.376C78.6449 16.376 78.9396 16.4973 79.1649 16.74C79.4076 16.9827 79.5289 17.2773 79.5289 17.624V24.54C79.5289 26.3427 79.0263 27.7467 78.0209 28.752C77.0329 29.74 75.6289 30.234 73.8089 30.234C72.0063 30.234 70.6109 29.74 69.6229 28.752C68.6349 27.7467 68.1409 26.3427 68.1409 24.54V17.624C68.1409 17.2773 68.2536 16.9827 68.4789 16.74C68.7216 16.4973 69.0163 16.376 69.3629 16.376C69.7269 16.376 70.0216 16.4973 70.2469 16.74C70.4896 16.9827 70.6109 17.2773 70.6109 17.624V24.54C70.6109 26.8107 71.6769 27.946 73.8089 27.946C74.8663 27.946 75.6723 27.66 76.2269 27.088C76.7816 26.516 77.0589 25.6667 77.0589 24.54V17.624C77.0589 17.2773 77.1716 16.9827 77.3969 16.74C77.6396 16.4973 77.9343 16.376 78.2809 16.376ZM90.165 16.064C93.285 16.064 94.845 17.936 94.845 21.68V28.752C94.845 29.0987 94.7236 29.3933 94.481 29.636C94.2556 29.8787 93.961 30 93.597 30C93.2503 30 92.9556 29.8787 92.713 29.636C92.4876 29.3933 92.375 29.0987 92.375 28.752V21.706C92.375 20.6833 92.141 19.8687 91.673 19.262C91.205 18.6553 90.4423 18.352 89.385 18.352C88.6916 18.352 88.059 18.508 87.487 18.82C86.9323 19.1147 86.4903 19.522 86.161 20.042C85.849 20.5447 85.693 21.0993 85.693 21.706V28.752C85.693 29.0987 85.5716 29.3933 85.329 29.636C85.1036 29.8787 84.809 30 84.445 30C84.081 30 83.7863 29.8873 83.561 29.662C83.3356 29.4193 83.223 29.116 83.223 28.752V17.624C83.223 17.2773 83.3356 16.9827 83.561 16.74C83.8036 16.4973 84.0983 16.376 84.445 16.376C84.809 16.376 85.1036 16.4973 85.329 16.74C85.5716 16.9827 85.693 17.2773 85.693 17.624V18.534C86.1436 17.8407 86.7676 17.26 87.565 16.792C88.3796 16.3067 89.2463 16.064 90.165 16.064ZM104.462 16.064C105.831 16.064 106.966 16.2807 107.868 16.714C108.786 17.1473 109.246 17.702 109.246 18.378C109.246 18.6727 109.15 18.9413 108.96 19.184C108.769 19.4093 108.526 19.522 108.232 19.522C108.006 19.522 107.824 19.4873 107.686 19.418C107.564 19.3487 107.391 19.236 107.166 19.08C107.062 18.976 106.897 18.8547 106.672 18.716C106.464 18.612 106.169 18.5253 105.788 18.456C105.406 18.3867 105.06 18.352 104.748 18.352C103.846 18.352 103.049 18.56 102.356 18.976C101.662 19.392 101.125 19.9727 100.744 20.718C100.362 21.446 100.172 22.2607 100.172 23.162C100.172 24.0807 100.354 24.904 100.718 25.632C101.099 26.36 101.628 26.932 102.304 27.348C102.98 27.764 103.751 27.972 104.618 27.972C105.519 27.972 106.247 27.8333 106.802 27.556C106.923 27.4867 107.088 27.374 107.296 27.218C107.469 27.0793 107.616 26.9753 107.738 26.906C107.876 26.8367 108.041 26.802 108.232 26.802C108.578 26.802 108.847 26.9147 109.038 27.14C109.246 27.348 109.35 27.6253 109.35 27.972C109.35 28.336 109.116 28.7 108.648 29.064C108.197 29.4107 107.582 29.6967 106.802 29.922C106.039 30.1473 105.216 30.26 104.331 30.26C103.014 30.26 101.853 29.9567 100.848 29.35C99.8422 28.726 99.0622 27.8767 98.5075 26.802C97.9702 25.71 97.7015 24.4967 97.7015 23.162C97.7015 21.8273 97.9875 20.6227 98.5595 19.548C99.1315 18.456 99.9288 17.6067 100.952 17C101.974 16.376 103.144 16.064 104.462 16.064ZM118.675 16.142C121.726 16.142 123.251 18.0313 123.251 21.81V28.752C123.251 29.0987 123.13 29.3933 122.887 29.636C122.662 29.8787 122.367 30 122.003 30C121.656 30 121.362 29.8787 121.119 29.636C120.894 29.3933 120.781 29.0987 120.781 28.752V21.81C120.781 19.5567 119.828 18.43 117.921 18.43C116.898 18.43 116.049 18.7593 115.373 19.418C114.697 20.0593 114.359 20.8567 114.359 21.81V28.752C114.359 29.0987 114.238 29.3933 113.995 29.636C113.77 29.8787 113.475 30 113.111 30C112.747 30 112.452 29.8873 112.227 29.662C112.002 29.4193 111.889 29.116 111.889 28.752V12.008C111.889 11.6613 112.002 11.3667 112.227 11.124C112.47 10.8813 112.764 10.76 113.111 10.76C113.475 10.76 113.77 10.8813 113.995 11.124C114.238 11.3667 114.359 11.6613 114.359 12.008V18.586C114.792 17.91 115.399 17.338 116.179 16.87C116.959 16.3847 117.791 16.142 118.675 16.142ZM133.784 16.142C134.962 16.142 136.028 16.4453 136.982 17.052C137.935 17.6413 138.68 18.4733 139.218 19.548C139.772 20.6227 140.05 21.836 140.05 23.188C140.05 24.54 139.772 25.7533 139.218 26.828C138.68 27.8853 137.935 28.7173 136.982 29.324C136.028 29.9307 134.98 30.234 133.836 30.234C132.934 30.234 132.094 30.0347 131.314 29.636C130.534 29.2373 129.901 28.752 129.416 28.18V33.952C129.416 34.2987 129.294 34.5933 129.052 34.836C128.826 35.0787 128.532 35.2 128.168 35.2C127.821 35.2 127.526 35.0787 127.284 34.836C127.058 34.6107 126.946 34.316 126.946 33.952V17.598C126.946 17.234 127.058 16.9307 127.284 16.688C127.509 16.4453 127.804 16.324 128.168 16.324C128.532 16.324 128.826 16.4453 129.052 16.688C129.294 16.9307 129.416 17.234 129.416 17.598V18.352C129.832 17.7453 130.438 17.2253 131.236 16.792C132.033 16.3587 132.882 16.142 133.784 16.142ZM133.498 27.946C134.295 27.946 135.014 27.738 135.656 27.322C136.297 26.906 136.791 26.3427 137.138 25.632C137.502 24.904 137.684 24.0893 137.684 23.188C137.684 22.2867 137.502 21.4807 137.138 20.77C136.791 20.042 136.297 19.47 135.656 19.054C135.014 18.638 134.295 18.43 133.498 18.43C132.683 18.43 131.955 18.638 131.314 19.054C130.672 19.4527 130.17 20.016 129.806 20.744C129.459 21.472 129.286 22.2867 129.286 23.188C129.286 24.0893 129.459 24.904 129.806 25.632C130.17 26.36 130.672 26.932 131.314 27.348C131.955 27.7467 132.683 27.946 133.498 27.946ZM145.256 28.752C145.256 29.0987 145.135 29.3933 144.892 29.636C144.667 29.8787 144.372 30 144.008 30C143.662 30 143.367 29.8787 143.124 29.636C142.899 29.3933 142.786 29.0987 142.786 28.752V17.494C142.786 17.1473 142.899 16.8527 143.124 16.61C143.367 16.3673 143.662 16.246 144.008 16.246C144.372 16.246 144.667 16.3673 144.892 16.61C145.135 16.8527 145.256 17.1473 145.256 17.494V28.752ZM144.008 14.53C143.506 14.53 143.142 14.4433 142.916 14.27C142.708 14.0793 142.604 13.7847 142.604 13.386V12.97C142.604 12.554 142.717 12.2593 142.942 12.086C143.185 11.9127 143.549 11.826 144.034 11.826C144.52 11.826 144.866 11.9213 145.074 12.112C145.3 12.2853 145.412 12.5713 145.412 12.97V13.386C145.412 13.802 145.3 14.0967 145.074 14.27C144.849 14.4433 144.494 14.53 144.008 14.53ZM155.593 16.064C156.044 16.064 156.434 16.1853 156.763 16.428C157.092 16.6533 157.257 16.9393 157.257 17.286C157.257 17.702 157.144 18.0227 156.919 18.248C156.711 18.456 156.451 18.56 156.139 18.56C155.983 18.56 155.749 18.508 155.437 18.404C155.073 18.2827 154.787 18.222 154.579 18.222C154.042 18.222 153.513 18.4127 152.993 18.794C152.49 19.158 152.074 19.6693 151.745 20.328C151.433 20.9693 151.277 21.6887 151.277 22.486V28.752C151.277 29.0987 151.156 29.3933 150.913 29.636C150.688 29.8787 150.393 30 150.029 30C149.665 30 149.37 29.8873 149.145 29.662C148.92 29.4193 148.807 29.116 148.807 28.752V17.624C148.807 17.2773 148.92 16.9827 149.145 16.74C149.388 16.4973 149.682 16.376 150.029 16.376C150.393 16.376 150.688 16.4973 150.913 16.74C151.156 16.9827 151.277 17.2773 151.277 17.624V18.95C151.658 18.1007 152.23 17.416 152.993 16.896C153.756 16.3587 154.622 16.0813 155.593 16.064ZM170.292 16.194C170.656 16.194 170.951 16.3153 171.176 16.558C171.419 16.7833 171.54 17.0867 171.54 17.468V28.752C171.54 29.0987 171.419 29.3933 171.176 29.636C170.951 29.8787 170.656 30 170.292 30C169.928 30 169.634 29.8873 169.408 29.662C169.183 29.4193 169.07 29.116 169.07 28.752V28.076C168.62 28.6827 168.004 29.2027 167.224 29.636C166.444 30.052 165.604 30.26 164.702 30.26C163.524 30.26 162.449 29.9567 161.478 29.35C160.525 28.7433 159.771 27.9027 159.216 26.828C158.679 25.736 158.41 24.514 158.41 23.162C158.41 21.81 158.679 20.5967 159.216 19.522C159.771 18.43 160.525 17.5807 161.478 16.974C162.432 16.3673 163.48 16.064 164.624 16.064C165.543 16.064 166.392 16.2547 167.172 16.636C167.97 17.0173 168.602 17.5027 169.07 18.092V17.468C169.07 17.104 169.183 16.8007 169.408 16.558C169.634 16.3153 169.928 16.194 170.292 16.194ZM164.988 27.972C165.803 27.972 166.522 27.764 167.146 27.348C167.788 26.932 168.282 26.36 168.628 25.632C168.992 24.904 169.174 24.0807 169.174 23.162C169.174 22.2607 168.992 21.446 168.628 20.718C168.282 19.99 167.788 19.418 167.146 19.002C166.522 18.5687 165.803 18.352 164.988 18.352C164.174 18.352 163.446 18.56 162.804 18.976C162.18 19.392 161.686 19.964 161.322 20.692C160.976 21.42 160.802 22.2433 160.802 23.162C160.802 24.0807 160.976 24.904 161.322 25.632C161.686 26.36 162.18 26.932 162.804 27.348C163.446 27.764 164.174 27.972 164.988 27.972ZM178.905 18.794V26.542C178.905 27.4087 179.295 27.842 180.075 27.842C180.197 27.842 180.361 27.816 180.569 27.764C180.777 27.6947 180.942 27.66 181.063 27.66C181.289 27.66 181.479 27.7553 181.635 27.946C181.791 28.1367 181.869 28.3793 181.869 28.674C181.869 29.038 181.661 29.35 181.245 29.61C180.829 29.87 180.361 30 179.841 30C179.269 30 178.741 29.9393 178.255 29.818C177.787 29.6967 177.363 29.3933 176.981 28.908C176.617 28.4053 176.435 27.6513 176.435 26.646V18.794H174.927C174.598 18.794 174.321 18.69 174.095 18.482C173.887 18.2567 173.783 17.9793 173.783 17.65C173.783 17.3207 173.887 17.052 174.095 16.844C174.321 16.636 174.598 16.532 174.927 16.532H176.435V14.348C176.435 14.0013 176.548 13.7067 176.773 13.464C177.016 13.2213 177.319 13.1 177.683 13.1C178.03 13.1 178.316 13.2213 178.541 13.464C178.784 13.7067 178.905 14.0013 178.905 14.348V16.532H181.063C181.393 16.532 181.661 16.6447 181.869 16.87C182.095 17.078 182.207 17.3467 182.207 17.676C182.207 18.0053 182.095 18.274 181.869 18.482C181.661 18.69 181.393 18.794 181.063 18.794H178.905ZM187.43 28.752C187.43 29.0987 187.309 29.3933 187.066 29.636C186.841 29.8787 186.546 30 186.182 30C185.835 30 185.541 29.8787 185.298 29.636C185.073 29.3933 184.96 29.0987 184.96 28.752V17.494C184.96 17.1473 185.073 16.8527 185.298 16.61C185.541 16.3673 185.835 16.246 186.182 16.246C186.546 16.246 186.841 16.3673 187.066 16.61C187.309 16.8527 187.43 17.1473 187.43 17.494V28.752ZM186.182 14.53C185.679 14.53 185.315 14.4433 185.09 14.27C184.882 14.0793 184.778 13.7847 184.778 13.386V12.97C184.778 12.554 184.891 12.2593 185.116 12.086C185.359 11.9127 185.723 11.826 186.208 11.826C186.693 11.826 187.04 11.9213 187.248 12.112C187.473 12.2853 187.586 12.5713 187.586 12.97V13.386C187.586 13.802 187.473 14.0967 187.248 14.27C187.023 14.4433 186.667 14.53 186.182 14.53ZM203.877 23.188C203.877 24.54 203.573 25.7533 202.967 26.828C202.36 27.9027 201.528 28.7433 200.471 29.35C199.431 29.9567 198.278 30.26 197.013 30.26C195.747 30.26 194.586 29.9567 193.529 29.35C192.489 28.7433 191.665 27.9027 191.059 26.828C190.452 25.7533 190.149 24.54 190.149 23.188C190.149 21.836 190.452 20.614 191.059 19.522C191.665 18.43 192.489 17.5807 193.529 16.974C194.586 16.3673 195.747 16.064 197.013 16.064C198.278 16.064 199.431 16.3673 200.471 16.974C201.528 17.5807 202.36 18.43 202.967 19.522C203.573 20.614 203.877 21.836 203.877 23.188ZM201.407 23.188C201.407 22.252 201.207 21.42 200.809 20.692C200.427 19.9467 199.899 19.3747 199.223 18.976C198.564 18.56 197.827 18.352 197.013 18.352C196.198 18.352 195.453 18.56 194.777 18.976C194.118 19.3747 193.589 19.9467 193.191 20.692C192.809 21.42 192.619 22.252 192.619 23.188C192.619 24.1067 192.809 24.93 193.191 25.658C193.589 26.386 194.118 26.958 194.777 27.374C195.453 27.7727 196.198 27.972 197.013 27.972C197.827 27.972 198.564 27.7727 199.223 27.374C199.899 26.958 200.427 26.386 200.809 25.658C201.207 24.93 201.407 24.1067 201.407 23.188ZM213.69 16.064C216.81 16.064 218.37 17.936 218.37 21.68V28.752C218.37 29.0987 218.249 29.3933 218.006 29.636C217.781 29.8787 217.486 30 217.122 30C216.776 30 216.481 29.8787 216.238 29.636C216.013 29.3933 215.9 29.0987 215.9 28.752V21.706C215.9 20.6833 215.666 19.8687 215.198 19.262C214.73 18.6553 213.968 18.352 212.91 18.352C212.217 18.352 211.584 18.508 211.012 18.82C210.458 19.1147 210.016 19.522 209.686 20.042C209.374 20.5447 209.218 21.0993 209.218 21.706V28.752C209.218 29.0987 209.097 29.3933 208.854 29.636C208.629 29.8787 208.334 30 207.97 30C207.606 30 207.312 29.8873 207.086 29.662C206.861 29.4193 206.748 29.116 206.748 28.752V17.624C206.748 17.2773 206.861 16.9827 207.086 16.74C207.329 16.4973 207.624 16.376 207.97 16.376C208.334 16.376 208.629 16.4973 208.854 16.74C209.097 16.9827 209.218 17.2773 209.218 17.624V18.534C209.669 17.8407 210.293 17.26 211.09 16.792C211.905 16.3067 212.772 16.064 213.69 16.064Z" fill="url(#paint1_linear_1_146)"/>
<defs>
<linearGradient id="paint0_linear_1_146" x1="-17.3913" y1="26.9566" x2="62.2933" y2="8.22383" gradientUnits="userSpaceOnUse">
<stop stop-color="#2F79CB"/>
<stop offset="1" stop-color="#AF51C5"/>
</linearGradient>
<linearGradient id="paint1_linear_1_146" x1="109.065" y1="74.8529" x2="201.229" y2="87.6227" gradientUnits="userSpaceOnUse">
<stop stop-color="#2F79CB"/>
<stop offset="1" stop-color="#AF51C5"/>
</linearGradient>
</defs>
</svg>
